<svg xmlns="http://www.w3.org/2000/svg" width="881" height="758" viewBox="0 0 881 758">
  <path fill="#00477E" fill-rule="evenodd" d="M741,381.33463 C741,272.39803 817.534066,204.480497 981.316137,184.334688 C1145.09821,164.188878 1388.11062,163.795309 1411.49518,274.396378 C1434.87973,384.997447 1283.98704,351.978654 1270.81888,438.383433 C1257.65072,524.788212 1430.71446,588.103614 1430.71446,715.865928 C1430.71446,843.628242 1361.73331,931.344918 1224.9681,931.344918 C1088.2029,931.344918 1102.37958,810.660939 981.316137,810.660939 C860.252694,810.660939 792.548404,948.91169 668.724014,883.30491 C544.899623,817.69813 524.399623,718.723802 577.399623,635.69813 C630.399623,552.672459 741,490.271231 741,381.33463 Z" transform="translate(-550 -174)"/>
</svg>
